<?xml version="1.0" standalone="no"?><svg xmlns="http://www.w3.org/2000/svg" viewBox="0 0 1440 320"><path fill="#000b76" fill-opacity="0.7" d="M0,32L24,37.3C48,43,96,53,144,48C192,43,240,21,288,16C336,11,384,21,432,53.3C480,85,528,139,576,165.3C624,192,672,192,720,170.7C768,149,816,107,864,85.3C912,64,960,64,1008,90.7C1056,117,1104,171,1152,170.7C1200,171,1248,117,1296,117.3C1344,117,1392,171,1416,197.3L1440,224L1440,0L1416,0C1392,0,1344,0,1296,0C1248,0,1200,0,1152,0C1104,0,1056,0,1008,0C960,0,912,0,864,0C816,0,768,0,720,0C672,0,624,0,576,0C528,0,480,0,432,0C384,0,336,0,288,0C240,0,192,0,144,0C96,0,48,0,24,0L0,0Z"></path></svg>